<svg xmlns="http://www.w3.org/2000/svg" height="40" viewBox="0 -960 960 960" width="40"><path d="M480-260.667q66.667 0 122.167-36.5t80.5-98.166H277.333q25.667 61.666 80.834 98.166 55.166 36.5 121.833 36.5Zm-174.667-268 44.667-44 44 44 38-38-82-82.666-82.667 82.666 38 38Zm261.334 0 44-44 44.667 44 37.999-38-82.666-82.666-82 82.666 38 38ZM480-80q-83 0-156-31.5T197-197q-54-54-85.5-127T80-480q0-83 31.5-156T197-763q54-54 127-85.5T480-880q83 0 156 31.5T763-763q54 54 85.5 127T880-480q0 83-31.5 156T763-197q-54 54-127 85.5T480-80Zm0-400Zm0 333.334q139.583 0 236.459-96.875Q813.334-340.417 813.334-480t-96.875-236.459Q619.583-813.334 480-813.334t-236.459 96.875Q146.666-619.583 146.666-480t96.875 236.459Q340.417-146.666 480-146.666Z"/></svg>